/* XPM */
static char *_6efd35d15aa4c82bfc0366ef9eab8a4nQjVtofPrN8yUXEl[] = {
/* columns rows colors chars-per-pixel */
"64 64 256 2 ",
"   c black",
".  c #010101",
"X  c #020202",
"o  c gray1",
"O  c #040404",
"+  c gray2",
"@  c #060606",
"#  c #070707",
"$  c gray3",
"%  c #090909",
"&  c gray4",
"*  c #0B0B0B",
"=  c #0C0C0C",
"-  c gray5",
";  c #0E0E0E",
":  c gray6",
">  c #101010",
",  c #111111",
"<  c gray7",
"1  c #131313",
"2  c gray8",
"3  c #151515",
"4  c #161616",
"5  c gray9",
"6  c #181818",
"7  c #191919",
"8  c gray10",
"9  c #1B1B1B",
"0  c gray11",
"q  c #1D1D1D",
"w  c #1E1E1E",
"e  c gray12",
"r  c #202020",
"t  c gray13",
"y  c #222222",
"u  c #232323",
"i  c gray14",
"p  c #252525",
"a  c gray15",
"s  c #272727",
"d  c #282828",
"f  c gray16",
"g  c #2A2A2A",
"h  c gray17",
"j  c #2C2C2C",
"k  c #2D2D2D",
"l  c gray18",
"z  c #2F2F2F",
"x  c gray19",
"c  c #313131",
"v  c #323232",
"b  c gray20",
"n  c #343434",
"m  c #353535",
"M  c gray21",
"N  c #373737",
"B  c gray22",
"V  c #393939",
"C  c #3A3A3A",
"Z  c gray23",
"A  c #3C3C3C",
"S  c gray24",
"D  c #3E3E3E",
"F  c #3F3F3F",
"G  c gray25",
"H  c #414141",
"J  c gray26",
"K  c #434343",
"L  c #444444",
"P  c gray27",
"I  c #464646",
"U  c gray28",
"Y  c #484848",
"T  c #494949",
"R  c gray29",
"E  c #4B4B4B",
"W  c #4C4C4C",
"Q  c gray30",
"!  c #4E4E4E",
"~  c gray31",
"^  c #505050",
"/  c #515151",
"(  c gray32",
")  c #535353",
"_  c gray33",
"`  c #555555",
"'  c #565656",
"]  c gray34",
"[  c #585858",
"{  c gray35",
"}  c #5A5A5A",
"|  c #5B5B5B",
" . c gray36",
".. c #5D5D5D",
"X. c gray37",
"o. c #5F5F5F",
"O. c #606060",
"+. c gray38",
"@. c #626262",
"#. c gray39",
"$. c #646464",
"%. c #656565",
"&. c gray40",
"*. c #676767",
"=. c #686868",
"-. c DimGray",
";. c #6A6A6A",
":. c gray42",
">. c #6C6C6C",
",. c #6D6D6D",
"<. c gray43",
"1. c #6F6F6F",
"2. c gray44",
"3. c #717171",
"4. c #727272",
"5. c gray45",
"6. c #747474",
"7. c gray46",
"8. c #767676",
"9. c #777777",
"0. c gray47",
"q. c #797979",
"w. c gray48",
"e. c #7B7B7B",
"r. c #7C7C7C",
"t. c gray49",
"y. c #7E7E7E",
"u. c gray50",
"i. c #808080",
"p. c #818181",
"a. c gray51",
"s. c #838383",
"d. c #848484",
"f. c gray52",
"g. c #868686",
"h. c gray53",
"j. c #888888",
"k. c #898989",
"l. c gray54",
"z. c #8B8B8B",
"x. c gray55",
"c. c #8D8D8D",
"v. c #8E8E8E",
"b. c gray56",
"n. c #909090",
"m. c gray57",
"M. c #929292",
"N. c #939393",
"B. c gray58",
"V. c #959595",
"C. c gray59",
"Z. c #979797",
"A. c #989898",
"S. c gray60",
"D. c #9A9A9A",
"F. c #9B9B9B",
"G. c gray61",
"H. c #9D9D9D",
"J. c gray62",
"K. c #9F9F9F",
"L. c #A0A0A0",
"P. c gray63",
"I. c #A2A2A2",
"U. c gray64",
"Y. c #A4A4A4",
"T. c #A5A5A5",
"R. c gray65",
"E. c #A7A7A7",
"W. c gray66",
"Q. c #A9A9A9",
"!. c #AAAAAA",
"~. c gray67",
"^. c #ACACAC",
"/. c gray68",
"(. c #AEAEAE",
"). c #AFAFAF",
"_. c gray69",
"`. c #B1B1B1",
"'. c #B2B2B2",
"]. c gray70",
"[. c #B4B4B4",
"{. c gray71",
"}. c #B6B6B6",
"|. c #B7B7B7",
" X c gray72",
".X c #B9B9B9",
"XX c gray73",
"oX c #BBBBBB",
"OX c #BCBCBC",
"+X c gray74",
"@X c gray",
"#X c gray75",
"$X c #C0C0C0",
"%X c #C1C1C1",
"&X c gray76",
"*X c #C3C3C3",
"=X c gray77",
"-X c #C5C5C5",
";X c #C6C6C6",
":X c gray78",
">X c #C8C8C8",
",X c gray79",
"<X c #CACACA",
"1X c #CBCBCB",
"2X c gray80",
"3X c #CDCDCD",
"4X c #CECECE",
"5X c gray81",
"6X c #D0D0D0",
"7X c gray82",
"8X c #D2D2D2",
"9X c LightGray",
"0X c gray83",
"qX c #D5D5D5",
"wX c gray84",
"eX c #D7D7D7",
"rX c #D8D8D8",
"tX c gray85",
"yX c #DADADA",
"uX c gray86",
"iX c gainsboro",
"pX c #DDDDDD",
"aX c gray87",
"sX c #DFDFDF",
"dX c gray88",
"fX c #E1E1E1",
"gX c #E2E2E2",
"hX c gray89",
"jX c #E4E4E4",
"kX c gray90",
"lX c #E6E6E6",
"zX c #E7E7E7",
"xX c gray91",
"cX c #E9E9E9",
"vX c #EAEAEA",
"bX c gray92",
"nX c #ECECEC",
"mX c gray93",
"MX c #EEEEEE",
"NX c #EFEFEF",
"BX c gray94",
"VX c #F1F1F1",
"CX c gray95",
"ZX c #F3F3F3",
"AX c #F4F4F4",
"SX c gray96",
"DX c #F6F6F6",
"FX c gray97",
"GX c #F8F8F8",
"HX c #F9F9F9",
"JX c gray98",
"KX c #FBFBFB",
"LX c gray99",
"PX c #FDFDFD",
"IX c #FEFEFE",
"UX c white",
/* pixels */
"UXUXUXUXUX8Xs         M ] NXUXUXUXUXUXUXUXKX0.o       = `.UXUXUXUXUXUXUXUXdXx o       o S zXUXUXUXUXUXUXUXUXd.        1 ).UXUXUX",
"UXUXUXUXIX0.q.} % ; [ qXX.!.UXUXUXUXUXUXUX&Xz ,     e 4.} CXUXUXUXUXUXUXUXs.*.Y     $ w.&.Z.UXUXUXUXUXUXUXpXM @     k z.[ NXUXUX",
"UXUXUXUX XX.CXVX$X>XSXUX'./ CXUXUXUXUXUXGX@.K.{.X.<.>XSX' /.UXUXUXUXUXUX1X[ lXrX1.O.Q.KX;XY xXUXUXUXUXUXUXs.p.I.} q.wXHX..R.UXUX",
"UXUXUXxX! _.UXUXUXUXUXUXZXX.].GXIXUXUXUXP.*.FXUXIXUXUXUXR.) AXGXUXUXUXAX..J.UXUXUXUXUXUXHX=.P.GXIXUXUXUX#X_ mXUXIXUXUXUX).^ CXHX",
"s.tXUXa.o.GXUXUXUXUXUXUXUXXXB H 3.wXUXrXP -XUXUXUXUXUXUXAX:. .P >.3XUXC._ ZXUXUXUXUXUXUXUX*XN G <.8XUXvX( ^.UXUXUXUXUXUXFX3.+.U ",
"  k H.} 0XUXUXUXUXUXUXUXUXT.      d !.*.s.UXUXUXUXUXUXUXUX{.o     0 h.` ;XUXUXUXUXUXUXUXUX_.O     u W.f.&.JXUXUXUXUXUXUXUX;X=   ",
"    % x.UXUXUXUXUXUXUXUXUX].#       & W mXUXUXUXUXUXUXUXUXqX7         <.UXUXUXUXUXUXUXUXUXXX&       = K iXUXUXUXUXUXUXUXUXkXf   ",
"      O.PXUXUXUXUXUXUXUXUXlXz         ^ HXUXUXUXUXUXUXUXUXLX#.        B MXUXUXUXUXUXUXUXUXbXG         P DXUXUXUXUXUXUXUXUXUX1.  ",
"      V CXUXUXUXUXUXUXUXUXeXM 9       a gXUXUXUXUXUXUXUXUXCX] w       q sXUXUXUXUXUXUXUXUXZX~ -       r sXUXUXUXUXUXUXUXUXBX/ p ",
"x . o r 4XUXUXUXUXUXUXUXJX6.x.%XC   o 5 Q.UXUXUXUXUXUXUXUXK.o.3X` +   3 }.UXUXUXUXUXUXUXUXL.]  XF . X 4 I.UXUXUXUXUXUXUXUXA.} yX",
"hXD.U.7.q.UXUXUXUXUXUXUX/.Q vXUXhXD.L.B...HXUXUXUXUXUXUXgXT >XUXCXE.A.h.| HXUXUXUXUXUXUXwX~ 4XUXlXH.G.G.{ DXUXUXUXUXUXUXfX~ 1XUX",
"UXUXUXjX{ wXUXUXUXUXUXgXL .XUXUXUXUXUXAXo..XUXUXUXUXUXLX6.6.LXUXUXUXUXBX| -XUXUXUXUXUXKX=.e.UXUXUXUXUXFX$.`.UXUXUXUXUXPX7.8.IXUX",
"UXUXUXUXl.7.UXUXbXT.e.#.q.PXUXUXUXUXUXUX~.| FXUXUXHXzX].C yXUXUXUXUXUXUX).O.FXUXbXT.w.i.U lXUXUXUXUXUXUX{.` ZXUXUXHXzX~.C uXUXUX",
"UXUXUXUXaXJ 5X,XI O   7 wXUXUXUXUXUXUXUXVX~ {.UX$X{ i 0 i.JXUXUXUXUXUXUXVX)  X<XI O   = /.UXUXUXUXUXUXUXSX` ~.UX$X{ i q i.JXUXUX",
"UXUXUXUXUXd.{ V       w aXUXUXUXUXUXUXUXUXR.-./.t     o E.UXUXUXUXUXUXUXUXP.J M       q sXUXUXUXUXUXUXUXUX_.+.Q.r     O Q.UXUXUX",
"UXUXUXUXUXzXm         M cXUXUXUXUXUXUXUXUXGX0.9       : :XUXUXUXUXUXUXUXUXnXM         A bXUXUXUXUXUXUXUXUXJXe.6       > ,XUXUXUX",
"UXUXUXUXUXaXr       + j wXUXUXUXUXUXUXUXUXUX5.        k vXUXUXUXUXUXUXUXUXpXe         D NXUXUXUXUXUXUXUXUXUX3.        < 3XUXUXUX",
"UXUXUXUXUXtX6     @ 4.:.g.UXUXUXUXUXUXUXUXZXC       , j -XUXUXUXUXUXUXUXUX0X<     # >.! `.UXUXUXUXUXUXUXUXCXN       7 T s.UXUXUX",
"UXUXUXUXUXP.C U Y J.GXrX] yXUXUXUXUXUXUXUXcXv o   e Y.v.5.IXUXUXUXUXUXUXUXN.B I T K.HXXX$.CXUXUXUXUXUXUXUXwXa +   r R.rXQ 0XUXUX",
"UXUXUXUXxX] *XHXGXUXUXUXh.u.UXUXUXUXUXUXUXS.3._.K.qXUXnX_ ,XUXUXUXUXUXUXfXT ,XHXGXUXUXHXX.W.UXUXUXUXUXUXIXu.u.'.L.wXUXPX5.6.UXUX",
"SXUXUXUXt.0.UXUXUXUXUXUXaXE rXUXIXUXUXUX9XU yXUXUXUXUXUXN.:.PXIXUXUXUXPX8.j.UXUXUXUXUXUX[.~ xXiXpXKXUXUX.XQ vXUXUXUXUXUX5XA 9XUX",
"Y ).PXoXP sXUXUXUXUXUXUXUXA.e.h...Z.vXFX..c.UXUXUXUXUXUXgXG ,.| y.eXUX].Y jXUXUXUXUXUXUXZX[ P w q %.eXxXT I.UXUXUXUXUXUXUXa.~ o.",
"  = 7.' L.UXUXUXUXUXUXUXUXGX:.    . F y._ nXUXUXUXUXUXUXUXm.      p h.P Q.UXUXUXUXUXUXUXUX3Xe       j | X.AXUXUXUXUXUXUXUX4X>   ",
"      ( DXUXUXUXUXUXUXUXUXUX^.+       + L.UXUXUXUXUXUXUXUX6X2       . ` FXUXUXUXUXUXUXUXUXUXw.        % [.UXUXUXUXUXUXUXUXfXy   ",
"      W HXUXUXUXUXUXUXUXUXUXsXt         #.PXUXUXUXUXUXUXUXHXX.        S CXUXUXUXUXUXUXUXUXUX8X3         Z.UXUXUXUXUXUXUXUXIX9.  ",
"      1 +XUXUXUXUXUXUXUXUXUXE.B 9       C ZXUXUXUXUXUXUXUXUXp.&       # C.UXUXUXUXUXUXUXUXUX/.A w       7.UXUXUXUXUXUXUXUXUX^.> ",
"&.6 t ..#.FXUXUXUXUXUXUXUXxX| =X}.j     d aXUXUXUXUXUXUXUXyX` !.P     j E lXUXUXUXUXUXUXUXjX[ 2X$XH ; b R sXUXUXUXUXUXUXUXVX..c.",
"JX9XtXZX*.`.UXUXUXUXNXVXUXu.w.UXUXyXp.j.t.Z.UXUXUXUXUXUXHX=.M.UXcXv.w.qXv.Z.UXUXUXUXVXNXPXw.q.UXUXmX1XvXn.C.UXUXUXUXUXUXUXM.>.LX",
"UXUXUXUX{.' BXUXCXv.m K v.Y dXUXUXUXUXUXcX#.sXUXUXMX;XgXI.` NXUXUXUXUXUXhX..dXUXDXD.C A s.I gXUXUXUXUXUXlX@.dXUXUXPXwX2X>XL 3XUX",
"UXUXUXUXSX_ Y.NX+.X     > Y.UXUXUXUXUXUXUXn.l.UX+XF * l Z @XUXUXUXUXUXUXUXc.l.SX2.+     2 !.UXUXUXUXUXUXUXc.z.UXbX7.7 < d x.UXUX",
"UXUXUXUXUX`.] O.        o.FXUXUXUXUXUXUXUXsX#.A.0       0.PXUXUXUXUXUXUXUXlX6.*.O       ..GXUXUXUXUXUXUXUXpX+.6X]       B MXUXUX",
"UXUXUXUXUXPX0..         K.UXUXUXUXUXUXUXUXUXH.;       < 2XUXUXUXUXUXUXUXUXUX~.@       @ ].UXUXUXUXUXUXUXUXUX`.S .       9.UXUXUX",
"UXUXUXUXUXSX!       o R =.DXUXUXUXUXUXUXUXPX*.        0 ,XUXUXUXUXUXUXUXUXFX]       X h g.LXUXUXUXUXUXUXUXUXk.X       . A.UXUXUX",
"UXUXUXUXUXJ.g ,   & ;.cXr.}.UXUXUXUXUXUXUXpXt       g f.5.GXUXUXUXUXUXUXUXY.j 4   # o.7XX.7XUXUXUXUXUXUXUX0Xu       O @.,.BXUXUX",
"UXUXUXUXfX~ XX#Xn.XXFXUX>X=.DXUXUXUXUXUXUXy.A q = S *XAX .$XUXUXUXUXUXUXjX^ ].;Xn.[.AXUXm.d.UXUXUXUXUXUXLXw.w.I * 0 i.SXs.Y.UXUX",
"HXUXUXPX0.0.UXUXUXUXUXUXHX;.}.JXUXUXUXUX<XX.gXeX:XmXUXUXY.:.KXJXUXUXUXIXy.<.IXUXUXUXUXUXsX] iXHXUXUXUXUX_.] ZXnX-XtXPXUX7X..NXKX",
"{ 1XUX|.H pXUXUXUXUXUXUXUXXXC U 8.tXUXCX{ R.UXUXUXUXUXUXZXw.<.Q 6.7XUX+XD wXUXUXUXUXUXUXUXL.W Y 5.eXUXfXT XXUXUXUXUXUXUXPXu.@.^ ",
"  p {.{ J.UXUXUXUXUXUXUXUXE..     j [.g.+.FXUXUXUXUXUXUXUX|.+     t A.} B.UXUXUXUXUXUXUXUX`.X     d (.t.6.PXUXUXUXUXUXUXUX>X-   ",
"    8 8.GXUXUXUXUXUXUXUXUX`.@       < B 7XUXUXUXUXUXUXUXUX9X6       o / AXUXUXUXUXUXUXUXUX.X%       ; ~ zXUXUXUXUXUXUXUXUXjXd   ",
"    O Y.UXUXUXUXUXUXUXUXUXzXc         T HXUXUXUXUXUXUXUXUXZXZ         C BXUXUXUXUXUXUXUXUXvXD         T FXUXUXUXUXUXUXUXUXKX_   ",
"    X D mXUXUXUXUXUXUXUXUXpXV 1       0 tXUXUXUXUXUXUXUXUX,XN x       5 eXUXUXUXUXUXUXUXUXVXR ,       4 9XUXUXUXUXUXUXUXUXyXD D ",
"~ c p.G E.UXUXUXUXUXUXUXUXy.0.OXm   X : n.UXUXUXUXUXUXUXUXp.g.eX! o   - N.UXUXUXUXUXUXUXUXJ.<.XXC   . ; f.UXUXUXUXUXUXUXUXv.u.lX",
"FXnXUX~.| ZXUXUXUXUXUXUX@X_ xXUXfXN.Z.Y.~ mXUXUXUXUXUXUXiXU wXUXNXL.b.J.^ cXUXUXUXUXUXUX5XK qXUXhXC.B.!.R zXUXUXUXUXUXUXlXY 3XUX",
"UXUXUXZXE K.UXUXUXUXUXmX( W.UXUXUXUXUXJX{ c.UXUXUXUXUXUXf.4.PXUXUXUXUXJX' j.UXUXUXUXUXFX .x.UXUXUXUXUXLXO.p.UXUXUXUXUXUXb.;.LXUX",
"UXUXUXUXY.U NXUXcX)._.p.#.JXUXUXUXUXUXUX{.A kXUXUXuXT.).J <XUXUXUXUXUXUX|.A hXUXVX%XT.B.( mXUXUXUXUXUXUX+XN aXUXUXyXY. XW %XUXUX",
"UXUXUXUXnXA I.$XA + + v wXUXUXUXUXUXUXUXDXW x.KXS.i . & O.GXUXUXUXUXUXUXSXE l.9X .;   8 &XUXUXUXUXUXUXUXHX) i.JXA.u . - o.FXUXUX",
"UXUXUXUXUX!.C y       Y ZXUXUXUXUXUXUXUXUX`.U y.&     o Y.UXUXUXUXUXUXUXUXoXF G       q aXUXUXUXUXUXUXUXUXXXJ 9.&     o Y.UXUXUX",
"UXUXUXUXUXcXl         p aXUXUXUXUXUXUXUXUXKX=.o       8 qXUXUXUXUXUXUXUXUXGX)         j zXUXUXUXUXUXUXUXUXLX:..       9 wXUXUXUX",
"UXUXUXUXUXT.+       7 t L.UXUXUXUXUXUXUXUXJX`         y dXUXUXUXUXUXUXUXUXfXa         q 5XUXUXUXUXUXUXUXUXHX)         h vXUXUXUX",
"UXUXUXUXUXm.      : c.p.) AXUXUXUXUXUXUXUXSXH       x P Y.UXUXUXUXUXUXUXUXwX3       ..o.u.UXUXUXUXUXUXUXUXAXD       z P `.UXUXUX",
"UXUXUXUXUX~.5 e A !.LXfXH G.UXUXUXUXUXUXUXBXI e 8 W 5X@XJ kXUXUXUXUXUXUXUXE.g d d w.NX9XC 1XUXUXUXUXUXUXUXVXI w 8 Q 7X^.I MXUXUX",
"UXUXUXUXVXO.U.hXVXUXUXUXV.G mXUXUXUXUXUXUXT.#.pXrXBXUXSX^ M.UXUXUXUXUXUXnX[ {.xXzXIXUXIX5.:.IXUXUXUXUXUXUXR.@.iXrXBXUXNXU Y.UXUX",
"lXUXUXUXD.{ FXUXUXUXUXUXcXZ F.UXPXUXUXUXdXY 1XUXUXUXUXUX~.B xXUXIXUXUXUXj.4.IXUXUXUXUXUX4Xz 2XUXUXUXUXUXgXY <XUXUXUXUXUXZ.J CXIX",
"j m.SXyXJ >XUXUXUXUXUXUXUXP.L 0.[ m.zXPX3.r.IXUXUXUXUXUXCX[ 0.,...Q.DX:XP rXUXUXUXUXUXUXLX9.) %.%.].AXPX5.w.PXUXUXUXUXUXmX` $.} ",
"  o &.6.d.UXUXUXUXUXUXUXUXHX%.      Z j.E jXUXUXUXUXUXUXUX6Xf     @ ' ( A.UXUXUXUXUXUXUXUXjXj     %  .L.T gXUXUXUXUXUXUXUX#X&   ",
"      I MXUXUXUXUXUXUXUXUXUX(.+       o V.UXUXUXUXUXUXUXUXUXq.        y pXUXUXUXUXUXUXUXUXPX .        4 T.UXUXUXUXUXUXUXUXhXi   ",
"      h rXUXUXUXUXUXUXUXUXUXaXr         @.PXUXUXUXUXUXUXUXUX%X=         p.UXUXUXUXUXUXUXUXUX{.*       X H.UXUXUXUXUXUXUXUXIXq.  ",
"        q.UXUXUXUXUXUXUXUXUXU.Z q       n BXUXUXUXUXUXUXUXUXk.b =       g hXUXUXUXUXUXUXUXUX{.t @       ! HXUXUXUXUXUXUXUXUXS., ",
"u.f N r.Z fXUXUXUXUXUXUXUXkX| ,X.Xz     q 1XUXUXUXUXUXUXUX0X_ 8XM.7   # 9 H.UXUXUXUXUXUXUXCX| I.k.,   > c '.UXUXUXUXUXUXUXlX} /.",
"IXkXbXLX5.d.UXUXUXUXUXUXIXw.y.UXUXaXg.b.k.O.FXUXUXUXUXUXDX+.V.UXUX,Xe.P.G.G fXUXUXUXUXUXUXA.2.PXPXOX9.].D.R ZXUXUXUXUXUXUXe.p.UX",
"UXUXUXUX2XN wXUXUXSX3XqX].U hXUXUXUXUXUXlXS XXUXUXUXUXUXD.{ ZXUXUXUXUXUXVXW j.UXUXPXUXUX8XU 4XUXUXUXUXUXnXG Q.UXUXUXUXUX|.E jXUX",
"UXUXUXUXPX%.7.UX1X/ , 0 m E.UXUXUXUXUXUXUXf._ GXLX3XC.Q.Q *XUXUXUXUXUXUXUX).n dXsXn.y.oX+.z.UXUXUXUXUXUXUXn.! DXKX2XV.].' Q.UXUX",
"UXUXUXUXUX$Xn P.l       ` FXUXUXUXUXUXUXUXiXF {.s.4   % s.IXUXUXUXUXUXUXUXCX` 5.^ #   3 { NXUXUXUXUXUXUXUXNXO.].p.4   * 4.JXUXUX",
"UXUXUXUXUXLX5.<         S.UXUXUXUXUXUXUXUXUXK.v %     + [.UXUXUXUXUXUXUXUXUX*X9       *  XUXUXUXUXUXUXUXUXUX=XS $     + {.UXUXUX"
};
