/* XPM */
static char *_fbeebce719542e7a924ccd9d239ad672VodDKEKCos42oFr[] = {
/* columns rows colors chars-per-pixel */
"64 64 256 2 ",
"   c #0B0B04",
".  c #080902",
"X  c #160C04",
"o  c #0B1706",
"O  c #141303",
"+  c #1B1403",
"@  c #15130C",
"#  c #1C140B",
"$  c #1C1C0C",
"%  c #161C09",
"&  c #1C1C12",
"*  c #191813",
"=  c #1A0E10",
"-  c #270B04",
";  c #370A06",
":  c #241A04",
">  c #23140B",
",  c #241C0D",
"<  c #291709",
"1  c #37170A",
"2  c #241C13",
"3  c #291A15",
"4  c #321C13",
"5  c #391916",
"6  c #06240A",
"7  c #1C220D",
"8  c #18250B",
"9  c #1C2412",
"0  c #1C2D1A",
"q  c #182915",
"w  c #193418",
"e  c #0B2E11",
"r  c #27250D",
"t  c #35270C",
"y  c #242314",
"u  c #2B2414",
"i  c #242A15",
"p  c #242519",
"a  c #2A251A",
"s  c #252D1B",
"d  c #2B2B1C",
"f  c #2A2A15",
"g  c #33251C",
"h  c #3B241B",
"j  c #332C1C",
"k  c #3B2B1C",
"l  c #382714",
"z  c #2C331C",
"x  c #273619",
"c  c #33321D",
"v  c #38381C",
"b  c #1D3B24",
"n  c #1A2F21",
"m  c #2D2C22",
"M  c #332D22",
"N  c #3B2D24",
"B  c #3D2C2A",
"V  c #2C3322",
"C  c #283925",
"Z  c #343423",
"A  c #3A3424",
"S  c #333B23",
"D  c #3B3B24",
"F  c #3C352A",
"G  c #333C2B",
"H  c #3B3C2C",
"J  c #353529",
"K  c #3A3B33",
"L  c #480A07",
"P  c #580708",
"I  c #46150C",
"U  c #55140B",
"Y  c #570E14",
"T  c #491915",
"R  c #561818",
"E  c #490B13",
"W  c #660606",
"Q  c #770506",
"!  c #670B12",
"~  c #790B13",
"^  c #651618",
"/  c #771619",
"(  c #6F120C",
")  c #4C2D14",
"_  c #4C231A",
"`  c #4C2C1A",
"'  c #452717",
"]  c #562919",
"[  c #44321C",
"{  c #4C331C",
"}  c #4B3516",
"|  c #55331B",
" . c #5B341C",
".. c #5C3A1D",
"X. c #543618",
"o. c #47230A",
"O. c #62351E",
"+. c #6B241D",
"@. c #5C1B21",
"#. c #661A25",
"$. c #771A23",
"%. c #472A25",
"&. c #582825",
"*. c #4C3C23",
"=. c #4B3C2B",
"-. c #463728",
";. c #5B3424",
":. c #553B24",
">. c #5C3A23",
",. c #543D2D",
"<. c #5B3C2B",
"1. c #563428",
"2. c #443C32",
"3. c #4B3C33",
"4. c #4C3734",
"5. c #573B34",
"6. c #642B28",
"7. c #633B23",
"8. c #673929",
"9. c #753A2D",
"0. c #693A35",
"q. c #773B3A",
"w. c #722A2B",
"e. c #12451B",
"r. c #1B4A27",
"t. c #16572D",
"y. c #27442A",
"u. c #38442B",
"i. c #284A34",
"p. c #3C4332",
"a. c #364934",
"s. c #2A5535",
"d. c #375437",
"f. c #29562F",
"g. c #214A1E",
"h. c #44432D",
"j. c #49432A",
"k. c #54422A",
"l. c #5C432C",
"z. c #5B4429",
"x. c #444334",
"c. c #4C4335",
"v. c #4C4439",
"b. c #4C4C3B",
"n. c #444B37",
"m. c #544333",
"M. c #5C4435",
"N. c #54443B",
"B. c #524B3C",
"V. c #5A4839",
"C. c #49543B",
"Z. c #59523C",
"A. c #63422B",
"S. c #6B4535",
"D. c #63453C",
"F. c #674839",
"G. c #764637",
"H. c #6B523D",
"J. c #764E3A",
"K. c #7C3F46",
"L. c #544C43",
"P. c #5A4B43",
"I. c #485643",
"U. c #535343",
"Y. c #5D554A",
"T. c #585948",
"R. c #4C5044",
"E. c #674B45",
"W. c #774B46",
"Q. c #63554B",
"!. c #635B4C",
"~. c #6A5547",
"^. c #735B4C",
"/. c #775648",
"(. c #655C51",
"). c #6B5C53",
"_. c #685857",
"`. c #795B54",
"'. c #476449",
"]. c #58654B",
"[. c #596652",
"{. c #517155",
"}. c #68634A",
"|. c #696757",
" X c #746254",
".X c #72645B",
"XX c #736A5D",
"oX c #7B6757",
"OX c #736C56",
"+X c #786B63",
"@X c #7A7364",
"#X c #797668",
"$X c #707465",
"%X c #6E6A62",
"&X c #850409",
"*X c #8B0D15",
"=X c #891721",
"-X c #912E2E",
";X c #960F1A",
":X c #82473B",
">X c #853F47",
",X c #855748",
"<X c #875955",
"1X c #94524D",
"2X c #876758",
"3X c #986559",
"4X c #88705B",
"5X c #8A5F60",
"6X c #876B64",
"7X c #956C66",
"8X c #847464",
"9X c #847A6C",
"0X c #8B7C6C",
"qX c #877568",
"wX c #967769",
"eX c #8A7D72",
"rX c #877B72",
"tX c #957B75",
"yX c #AC776D",
"uX c #A95E56",
"iX c #7A8470",
"pX c #8C836E",
"aX c #94826C",
"sX c #8C8474",
"dX c #8A8678",
"fX c #938374",
"gX c #958A7B",
"hX c #9A8C7C",
"jX c #978677",
"kX c #91937B",
"lX c #A8867A",
"zX c #B2877B",
"xX c #C98B7C",
"cX c #9A8C81",
"vX c #999585",
"bX c #B28B82",
"nX c #AC9C8D",
"mX c #A79587",
"MX c #AC9E91",
"NX c #B59D92",
"BX c #B4948A",
"VX c #ADA293",
"CX c #A5A895",
"ZX c #B2A394",
"AX c #B5AC9D",
"SX c #B7A89B",
"DX c #A4A28B",
"FX c #BCADA1",
"GX c #BDB3A4",
"HX c #BBB4A8",
"JX c #96A48B",
"KX c #C7948A",
"LX c #C8A399",
"PX c #C3B7A9",
"IX c #CBBEB1",
"UX c #CDC5B3",
/* pixels */
"p p $ $ D v r j.}.v r z 9 9 s 0 q q i z v v c f z s s 9 9 9 p p 9 q z o T.HXmXVXZXcXSXSXNXZXmXZXnXPXSXZXGXUXUXUXPXl [ l.:.) ....",
"& @ $ r A l r Z.V.l j D D S C C 8 8 i c v v c c z s q 9 & & y p i S 9 i z OXPXnXmXZXFXNXNXSXNXmXnXSXZXZXGXIXUXUXZXt [ l.z.X.....",
"%XU.H j u + r OXZ.v l c d s s q q x v v v c c z z i 9 9 $ % & d s u.9 S y c VXSXfXFXFXMXMXnXMXNXnXZXZXZXGXGXPXUXmX: l l.l.X.X...",
"vXdX9XXX!.j.*.oXl : : u f p 9 % i x u.h.D c z z s 9 9 i 9 $ 9 m s s s z Z u c.VXmXPXnXZXFXmXmXSXZXZXVXSXAXVXAXUXjX: [ l.l.} )  .",
"dXdXvXgXjXaX4XqXk.-.t : $ $ $ 7 8 x v u.v c x z 7 7 i z s 9 i V i o i $ i f + |.GXIXmXnXPXSXMXnXZXZXZXSXZXvXVXUX@X: [ z.z.X.X...",
"vXvXvXpXpXhX8X^.8X8X!.c.A a 2 f z c v v x r r 8 % i z S V z z z z % 7 7 O y Z r sXGXFXMXMXMXMXmXnXnXVXAXZXvXvXGXZ.: *.k.z.X...A.",
"vXcXvX9X9XfX~.k ^.aXhXgXsXXXB.c.h.v x r r r 8 8 8 z D D S S S z S s 7 i 7 y x.u 2.9XGXZXhXmXnXZXnXnXVXAXAXvXsXgXv X k.k.z.>.>.A.",
"vXrX@X!. X0XoXZ.fXnXMXhXfX9X@X9Xj.v r 8 r x x x 7 v h.D S D S z z s $ i p.c a B.u c.gXVXVXSXnXZXZXVXVXAXGXvX$XOX, X k.k.z.z.>...",
"rXY.Y.Y.XX9X.XfXhXVXhXfXvX8X.XcX-.v v x v u.u.v v -.j.j -.d S D z i i Z H D Z Z A r x.VXPXmXSXSXZXAXVXAXGX9XXXA r + j.k.:.l.X.A.",
"T.b.U.x.}.dX@X0XnXeX@XeXsX9XrXvX-.j.h.u.v x S u.D =.m.[ -.r f f n.S i i f z d d A + u sXGXPXPXmXAXPXAXVXHXMX|.O u : j.k.{ :.` >.",
"p.p.U.b.|.dX#XdXMX}.}.9X|.(.#X9Xv -.u.v x x x S r [ ,.[ l : r r $ $ 7 y d Z z y f $ y @XfXAXIXUXGXPXUXUXAXsX2.d j u c.*.[ X.) X.",
"p.u.C.T.[.|.[.dX$Xb.Y.XXc.F Y.|.j j z x x x z f l [ <.%.l 4 r $ r y $ % 7 f i $ r y Z XXU.XXgXFXIXFXHXUXFXgXu u j u m.*.{ :.) X.",
"a.u.a.a.p.C G T.p.x.b.v.A j x.!.j j z x C C z f k ' %._ ; 1 < X + 7 y i d Z z 9 z f H @Xc.v.-.Q.eXmXPXHXAXvXy + , r m.k.{ l.{ | ",
"y.d.a.x 0 0 V G G n.J p Z A 2.!.u c D S w q i u < ; I T 1 1.V.=.$ y i i f z Z V p.Z U.sXQ.L.3.Q.N..XVXHXFX#XO $ + : m.*.{ l.{ ) ",
"a.d.C w b C G G n.p.s p d M H Y., g Z x q 8 % $ - ; T &.&.2XhXgX#X|.B.A 7 % i S H A |.#XT.Q.!.8X).N.(.dXAX|.  @ + , m.*.[ l.{ ) ",
"a.C 6 0 u.C C a.a.s s V s y H T., y y i 0 q 8 X > 1 T &.Y 1XyXlXjXgXvXdX|.u.s i z d !.!.B.N.=.=..X(.Y.b.$Xn.% p + r V.:.{ A.| ) ",
"d V V s V G G H V d d & V $ U.x.% 9 y , 7 7 8 o & > E ^ / -X-X1X7XBXjXgXvXC o 0 p y 8X6X^.6XD.~.5.).+XT.y.b b 0 $ 4 M.<.o.` | ) ",
"p a d d m J J J d a d & d @ U.p.% 8 y u i i q o * > E #.=X-XQ ~ 1XzXlXgXdX0 6 q V -.tX`.W.<XE.<XE.E.L.R.y.e 6 q $ g D.8.) >.>.) ",
"a d d d Z F J M p a d y d $ T.p.0 9 $ r y 7 % % & 3 ; Y =X=XQ Q w.3XlXmX@X7 7 O # -.6X&.&.&.R 0.0.`.+XL.C 0 0 V y l <.<.| l.:.' ",
"d m m d M Z M a a a d a d a Y.H p 9 y d f 7 % & # 4 ; E $.=XQ *XW w.3XBXoXu u X X M.5XT @.R E @.E K.5XP.a p s y 2 4 5.<.{ z.*.l ",
"a d d a d M M M d a y a y M (.Z @ $ Z p.D i $ $ X 3 5 R w.$.Q Q Q ( -XzX2Xk j + X E.<XR #.#.Y #.#.#.6.5.%.3 # , < 4 5.<.` k.{ t ",
"a d M d d F x.v.H Z a d $ Z (.M , u z S z r : > > 3 4 T &.^ =XQ *XQ / yX/.' k < - /.0.E R @.Y E #.#.6.&.h > # , 4 l M.<.[ k.j.t ",
"j M Z d j 2.U.|.Y.L.x.2.2 F XXF g j S S D =.=.-.-.g h ' 1.6.-X*X;X&X( uXG.' [ , < 6XE.0.&.q.6.R Y #.6.%.4 > > > h h M.<.{ k.j.t ",
"d M M u y A L.|.XXXX(.Y.a 2.#XN.3 N n.[.8XfXqX`.E.4.N.E.~.S.uXQ &X&X~ uX9.` A r , 8X).6X^.6X`.E.0.R T 0.E.N 3 k [ h ,.:.{ l.*.t ",
"M d A M u j (.L.(.!.XX|.2 c.|.v.5 N i n. X' 1.M.).Q..XgXb.*.9.~ ;X&X~ uXT :.j.f f kX2.Z b.b.T.B.`.`.%.N.nXgXsX@X).^.*.*.{ l.X.1 ",
"F M u M u A Y.!.+XY.Y.L.2 B.Y.M 4 g O n.F.1 ` ~.9XrX+X+Xn.v R =X&X&X-XyX] t D x S |.V G C.C C p.Y. XB.Y.vXdXvXhXfX0XF.:.` z.X.t ",
"dX@Xv.B.M M A 2.+X(..XY.g Y.Y.-.5.3.i }.G.] S.jXsX#X|.(.u.c 1 ! / W -XyX4X~.T.S C.I.C i.'.b w d.V U.x.U.dXdXgXsXhXaXV.:.) >. .o.",
"eXgX9X9X+XL.2.F N.3.Q.3.2 P.2.g N.%.+ -.] U ;.oXXXH L.|.x p.,.L w.P w.zXBXvXkX|.[.d.y.C '.i.r.s.C C.p.|.vXvXgX8X0X4X,.:.` ..| o.",
"9XsXsX).@X).8X.XY.2.N.g 3 (.g > ).2.u l +.^ 0.Z.n.q v.|.C '.oXS.^ U G.bXqXsXkXvX$Xn.G V I.a.y.d.y.C.p.%XvXvXhX8XfX8Xl.l.| >. .o.",
"cXfXrX3.Q.P.cXeXrX.X@XF g .XM N (.N u 1 / ( ;.v x y.F L.y.'.sXlXI R <XmXXX@X$XdX|.Z a Z x.S C a.a.C.x.@XgXfXjXjXlX0Xl.l.:.7.7. .",
").Q..XP..X).cX@XrX9XcX3.g ).3 -.L.u 4 _ / / ] c w C 3 v.y.'.kX0X1 ' qXMXcXdX#X+XP.4.%.3.A Z S z n.b.h.sXcXjXlXmXlX4X:.:.| >.7.7.",
"Q.=.=.3.N.Y.dX#X#X+XsX-.N +X> g F X - ;.! ^ I A C 6 O T.y.'.CXc.4 h fXmXMXmXmXcXoXjXtX0XZ.!.T.c c j u qXcXjXtXwXjX2X{ :.` X. . .",
"`.oXqXB.Y.J T.|.|.dXrXN v.Q.-.N M : 4 %.R R &.N & 0 q '.i.{.JXZ % c.hX4X2XwXbXKXBXmX X XZ.l Z.@XV.g %.@XhXgXmX0XjX4X:.;.8.| 7.7.",
"E.oXhX9XdXXX[.p.R.(.Y.> v.c.M M m a k %.&.&.%.5 & o q $Xx |.vXv + !.mXjXwXwXwXyXlXwX,.H.k.1 l.^.%.E.V.0XhXsXsXjXaX2X:.;.7.| >.>.",
"V.8XcX9X#X#X9XXX).Q.P.> P.F a d 9 M N %.%.%.5 > g # F dXk oXwX_ _ wXBXLXNXBXlXlXwX2Xl H.l.1 ] 1.1 `.V.0XhX9XXXaXwX/.| | >.]  . .",
"B.XXdXeX@X8X8X.XtXeX.X3 (.2.M $ @ d M N -.5 > 3 4 X %.`.T q.9.P ^ ,X<XKXNXNXZXmXwX`.1 /.8.I I I 1 E.%.qXgXpXoX4XwXH.| |  .| X.| ",
"U.x.L.+X#XeXqX+XtXcX+X> Q.B.x.O $ m J F J & # N -.5 R R ^ / ~ ~ ! ^ q.KXmXmXVXhXmX2X_ G.6.L U U T %.l fXjXfX0X8XwXS.| | | | | X.",
"#X2.K L.Q.E.+XqX6XtX).3 Q.L.v.# 2 M K J p @ & F 6X/.w.P $.~ ~ =X/ ! 1XLXZXvXDXvXnX^.0.G.6.U U T ' 1 -.hX0XpXfXaX7X<.;. .)  .| ) ",
"cX(.+X+X_.B N.P.).+XN.M ).v.N > 3 N 2.d % 0 G H XX`.6.Y / ~ ~ ~ / ^ q.7XnXvXkXkXhXF.,Xq.q.6.] ' 5 < E.fX9XpX0XwX7X>.>.>.) ..X.) ",
"tXE.6XrXtXQ.+X).c.v.a A ).k > 1 1 %.v.d % a.T.x.2.5.R 6.^ / $.^ $.R %.%.vXCXkXDXmX<.<X6.0.S.,.,.l 4  X0XfXhX8XwX7X;.7.7.) >.X.) ",
"tXE.tXtX`.).rX#XiXiXV V Y.h - - ;.D.%.A s q T.[.Y.~.,./.,X7.3X8.I T -.+ S kXkXkXmXS.0.;.M.=.n.h.4 h ^.oX0X0X4XoX2XS. . . .| X.X.",
"W.6.<X7XW.^.XX@X|.#Xs H !.h 1 - &.T - m.Q.H b.b.Z.Z.c.}.OXk.}.*.4 g J . o C.pXjXlX;.;.<.m.z w x , <  X4XV.l H.wX/.A. . .7. .X.X.",
"R R 6.q.&.S.W.eX#XiX9 b.9XE.0.; 0.0.&.D.^.Q.).B.b.S u.C.[.C.].C.8 s p.8 o D gXaXwX` ` l.h.w e w j - ^.oX-.< F.2X/.G.8.O.....X.} ",
"Y Y ! ! P ^ 6.<X8X@X+ U.0X^./._ T 8.;.&.&.1.`.`.OXn.n.a.d.e.g.f.y.C 0 . O r hX4X7X .' k.S x e b A h ~.m.[ ,.^./.2X,XG.O. .....X.",
"P W / W ~ W P R &.D.- Q.E.%.D.;.` ` ] 6.R L R 0.~.j.n.y.y.e e f.d.C 0 O + - 2X<.2X8.{ =.y u.w q j M.~.k [ l.^.4X2X,XG.O. .....X.",
"P W =XQ ;X&XQ W P R ; ~.5.%.4.%.M.:.] ] ^ ! P L I l h.a.d.w e.d.y.C p # - - F._ J.A.[ =.r T.G p -.F.^.,.~.H.H.wX,XJ.8.7.7...X.X.",
"W W Q Q &X;X*X*X/ Y L /.5.N.4.%.t } ] U W / / ! E %.c.u.d.e w y.G J 2 3 5 T G.8.S.l.k =., .XB.F Q.V.H.m.~.F.H.2XJ.8.O.O.7...X.X.",
"U ( Q &X&X;X&X&X*XP Y W.' %.k -.t } J.:X^ P P ^ T 1.D z p.q S p.M 4.E.7XzXyX,X] /.F.l A + |.v.-.^.*.,.4 < ' H.2X,X8.] ] O. ...z.",
"I L / ~ ~ &X;X&X=XP R <X<XG.1.: k.hXH./.zX0.0.' < }.OXh.CXY.B 5.6XyX3XG.3X1X,X1.D.Q.a . y J y !.~.M.l 4 M.5 1.2XJ.8.] ) ] ]  .7.",
"t I Y P ! ( =X*XQ P ] 3X3X,XF.*.4XaX:.1 /.`.^.V.Z.}.|.iXVX4.3 `.KX:X1XKXxXKX3X_ 4.L.p . % s O 2.m.l l ,.%.%.5 `.' ) )  . . . .7.",
"oX/.w.P Y P W W ! L ;.2XW.W.F.F.H.2X`.,.E.6X,.k @Xj.f b.$X+XK _.2X3XKX1XU 3XyXS.h B 2     y O c Z.: k N.4 g > ~.' o.o.) |  .>.<.",
"OX8X<Xq.<Xw.Y P ^ L <.2XW.G.A.<.;./.7X~.4.).N k t [ }.j.X m J +X`.yXzXO.8.8.2X2X4 3 * @ . p f x.j., 3.g 4 > 4 V.l.` o.) :.l.l.,.",
"|.#XoXE.7X/.0.W.] ; V.oX2X/.A.` ] 0.0.D.3.).c.A [ l oX~.g $   $ 2XlX,X0.wX;.J.6X4 > @ @ . a j B., 2.c.2 M # u -.F.<.| :.<.,.=.-.",
"$X#X(.N.+X).^.wXF.< V.V./.S.8._ R 6.&.5.P.!.B.v l { aX^.j.O . . ~.bXS.G.8.;./.oXg #   *   2 r c.N.+XH a 2 2 > -.F.M.:.) t 4 N 4.",
"n a.R.R.#X|.|.9X).< Z.l <.' 1._ 6.q.E.N H b.b.=.< <.2X8.-.: i y  XwX] /.S.S.D.~.3.a   @ O $ : Z.cX|.M 2 # 2 # 3.~.A.) 1 - - g 2.",
"0 n n q a.a.[.iXU.O !.k D.1 &.T 6.W.`.g x.].x.j 1 8.J.7.| - y A  XwX<.` ] ` [  X_.F   @ # , ,  XMXg 2 & m * > 5.2XS._ 1 5 k M m ",
"e n i.i.o e C a.G y !.V.~._ I 1 T E.tX#XR.I.C.j 1 J.9.G.S.T k k tXLXLXlXS.1 4 E.M a .   O # u hX X, # 2 a $ # oX2X0.6.; ; ~.Q.3 ",
"q b i.s.6 w y.y.0 d qX2X2X<.&.; 1 D.eXdXT.I.U.A { ,X9.G.9._ D.`.BX`.J.wXlXD.4 N.a 2 .   . X u hXP.> # & & O + ^.7XG.] ; ; 4.4.2 ",
"q b i.i.6 b i.y.8 c qX6X2X~.W.5 ; ,.+X@XT.R.U.V.H.,XG.9.8.T E.6X2XbXbX7X2X7XoXP.2 *     . X j hXm.3 a p y $ , ^.7XG.R L ; 5 B = ",
"6 b t.t.6 y.s.y.0 z ^.~.E.~.`.1.5 m.).!.b.x.Z.^.F.J.8.7.] &.<XwX7X6.I 8.2X7XoXXXm   . o @ $ =.sXv.F K G C s j ^.3X:XU U I 5 %.= ",
"e y.t.t.6 y.s.f.w Z E.D.=.=.^.F.' H. X).Q.N.V. XH.H.S.>.) 0.2X<X6.0.&.I T F.6X0X2.. . @ p J B.@Xb.b.I.d.a.u.H ^.2X:XU L I 5 B = ",
"w i.t.t.6 r.s.f.6 n.`.~.=.c V.V.l ^.4X2X2X~.D.`.~.l.z.X.' H.7X/.<X6.@.&.&.1./.6XL.  o 0 G b.Y.|.T.].].'.'.d.n.^.<X:XU L ; 5 a @ ",
"w r.t.t.6 r.f.r.o T.`.E.n.x.c.-.1 /.,XW.<XW.F.oX*.: t [ [  XtX<X6.R R R T &.E.)._.* m K R.U.|.}.|.[.{.{.{.'.I.}.,XG.w.] _ 5 = * ",
"e w e.t.e r.t.r.6 ].D.1.b.T.B.l 1 W.0.T 0.0.S.4Xz.: t j.j.^.`.5.@.>X1X6.L 1.`.E.+Xm R.I.T.T.OX|.|.{.'.{.{.'.'.}.J.9.:X:X0.%.  & "
};
