/* XPM */
static char *b166fc15ed94483ace2ae9421f75872fa1voiC0VlF1If45O[] = {
/* columns rows colors chars-per-pixel */
"64 64 144 2 ",
"   c #F20101",
".  c #F40B0B",
"X  c #F41313",
"o  c #F41C1C",
"O  c #F52323",
"+  c #F52C2C",
"@  c #F53333",
"#  c #F63B3B",
"$  c #F64343",
"%  c #F74C4C",
"&  c #FF4C4C",
"*  c #F75454",
"=  c #F75B5B",
"-  c #F85F5F",
";  c #F76060",
":  c #F86464",
">  c #F86B6B",
",  c #F87474",
"<  c #F97C7C",
"1  c #F98484",
"2  c #F98B8B",
"3  c #FA9494",
"4  c #FB9C9C",
"5  c #FBA4A4",
"6  c #FBA5A5",
"7  c #FBA6A6",
"8  c #FBA7A7",
"9  c #FFA4A4",
"0  c #FFA5A5",
"q  c #FFA6A6",
"w  c #FFA7A7",
"e  c #FDA3A3",
"r  c #FBA8A8",
"t  c #FBA9A9",
"y  c #FBAAAA",
"u  c #FBABAB",
"i  c #FBACAC",
"p  c #FBADAD",
"a  c #FBAEAE",
"s  c #FBAFAF",
"d  c #FBACAC",
"f  c #FBB0B0",
"g  c #FBB1B1",
"h  c #FBB2B2",
"j  c #FBB3B3",
"k  c #FCB3B3",
"l  c #FBB4B4",
"z  c #FBB6B6",
"x  c #FCB5B5",
"c  c #FCB6B6",
"v  c #FCB7B7",
"b  c #FBB3B3",
"n  c #FCB8B8",
"m  c #FCB9B9",
"M  c #FCBABA",
"N  c #FCBBBB",
"B  c #FCBCBC",
"V  c #FCBDBD",
"C  c #FFBDBD",
"Z  c #FCBFBF",
"A  c #FFBEBE",
"S  c #FFBFBF",
"D  c #FDBCBC",
"F  c #FCC1C1",
"G  c #FFC0C0",
"H  c #FFC1C1",
"J  c #FCC2C2",
"K  c #FCC3C3",
"L  c #FFC2C2",
"P  c #FFC3C3",
"I  c #FCC4C4",
"U  c #FCC5C5",
"Y  c #FCC6C6",
"T  c #FCC7C7",
"R  c #FEC4C4",
"E  c #FCC8C8",
"W  c #FCC9C9",
"Q  c #FCCACA",
"!  c #FDCACA",
"~  c #FCCBCB",
"^  c #FDCBCB",
"/  c #FDCCCC",
"(  c #FDCDCD",
")  c #FDCECE",
"_  c #FDCFCF",
"`  c #FDCBCB",
"'  c #FDD0D0",
"]  c #FDD1D1",
"[  c #FDD2D2",
"{  c #FDD3D3",
"}  c #FDD4D4",
"|  c #FDD5D5",
" . c #FDD6D6",
".. c #FDD7D7",
"X. c #FDD3D3",
"o. c #FDD8D8",
"O. c #FDD9D9",
"+. c #FDDADA",
"@. c #FDDBDB",
"#. c #FDDCDC",
"$. c #FDDDDD",
"%. c #FDDEDE",
"&. c #FDDFDF",
"*. c #FFDFDF",
"=. c #FDDBDB",
"-. c #FDE0E0",
";. c #FEE0E0",
":. c #FFE0E0",
">. c #FEE1E1",
",. c #FFE1E1",
"<. c #FEE2E2",
"1. c #FEE3E3",
"2. c #FEE5E5",
"3. c #FEE6E6",
"4. c #FEE7E7",
"5. c #FEE3E3",
"6. c #FEE8E8",
"7. c #FEE9E9",
"8. c #FEEAEA",
"9. c #FEEBEB",
"0. c #FEECEC",
"q. c #FEEDED",
"w. c #FEEEEE",
"e. c #FEEFEF",
"r. c #FEEBEB",
"t. c #FEF0F0",
"y. c #FEF1F1",
"u. c #FEF2F2",
"i. c #FEF3F3",
"p. c #FEF4F4",
"a. c #FEF5F5",
"s. c #FFF5F5",
"d. c #FFF6F6",
"f. c #FFF7F7",
"g. c #FFF4F4",
"h. c #FFF8F8",
"j. c #FFF9F9",
"k. c snow",
"l. c #FFFBFB",
"z. c #FFFCFC",
"x. c #FFFDFD",
"c. c #FFFEFE",
"v. c white",
"b. c #FFFEFE",
/* pixels */
"a.O 1 v.T   n v.8   &.v.# # v.T   i v.C J C & & 0 &.0 v.f   % v.v.J . # v.v.v.1   1 v.j.v.:   u v.v.9.+ X <.v.v.a.$   _ v.v.^ X ",
"l   v v.<   4.v.% o v.y.  2 v.1 . 9.v.C J C & & 0 &.0 v.%   C v.v.,   u v.j.v.O   4.v.v.w.  o j.v.v.f   = v.a.v.[   % v.a.v.>   ",
"4 1 v.v.1 v v.v., _ v._ 4 v.v.4 [ v.v.J J C & & 0 &.0 v.o., J v.y., 1 e v.v.&.> 3 4 v.v.8 1 8 e v.v.2 4 3 C v.v.8 > 2 9.v.f 1 > ",
"f 9.v.v.i w.v.y.4 v.v._ 3 v.v.4 _ v.v.J J C & & 0 &.0 v.v.v.2 1 < <.v.l , e 1 a.v.u < 2 8 v.v.u > 1 _ v.v.< 2 J 4 v.w.: 2 e v.v.",
"4 O w.v.< + j.v.$ * v.9.  2 v.< . w.v.J J C & & 0 &.0 v.j.v.v.X . C v.v.-   < v.v.j.o   ^ v.v.<.  o &.v.v.e   # v.v.v.%   3 v.j.",
"_   4 v.l   n v.<   w.v.@ + v.T   k v.C J C & & 0 <.0 v.v.j.v.1   = v.v.J . X v.v.v.,   % v.v.v.*   1 v.v.v.@   _ v.v.[   o v.v.",
"v.> 2 v.v.: u v.y.= } v.} > v.v.3 i v.C J C & & 0 <.0 v.v.v.u u [ , <.[ 2 &.1 u v.3 f o.4 4 v.3 C T , &.v.4 f u 1 v.a.2 C 2 8 v.",
"v.o.4 v.v.v i v.v.2 [ v.w.< a.v.e f v.C J C & & 0 <.0 v.v.< * v.v.v.% $ v.v.v.8 @ 1 v.v.v.i o 8 v.v.a., $ i v.v.[ * * } v.v.f < ",
"a.O < v.}   i v.4   4.v.% + v.^   k v.C J C & & 0 <.9 v.e   * v.v.C   $ v.j.v.<   3 v.a.v.=   C v.v.9.O . y.v.v.f   = v.a.v.^   ",
"f   n v.1   <.v.# + v.a.  < v.< . w.v.J J C & & 9 <.9 v.*   ^ v.v.=   4 v.v.v.o . o.v.v.<.  O &.v.v.4   - v.v.v.=   3 v.j.v.-   ",
"4 < v.v.2 8 v.a., } v.} 1 v.v.3 T v.v.J J C & & 9 <.0 v.w.f 2 a.i 4 o.2 J v.4 4 } 1 <.a.2 n 4.1 [ } 1 o.u 3 v.<., o.f 3 v.8 3 < ",
"i 9.v.j.f j.v.w.i v.v.} u v.v.e 4.v.v.J J J & & 9 <.0 v.v.v.T X @ a.v.v.$ o 2 v.v.o.O + T v.v.[ . $ a.v.v.< o = w.v.v.$ o 3 v.v.",
"4 O w.v., @ v.v.# : v.y.. 3 v.> O j.v.J J J & & 9 <.0 v.j.a.v.-   > v.v.i   @ a.j.v.%   < v.a.j.$   4 v.v.&..   <.v.v.3   $ v.j.",
"^   4 v.u   J v.>   y.v.@ @ v.f   T v.C J J & & 9 <.0 v.j.v.4.3 * : v.v.u : # j.v.n 4 = > v.v.j.2 # 2 v.v.[ , % 2 v.v.l * % v.v.",
"v.> 3 v.j.* i v.4.% o.v._ > v.v., v v.J J J & & 9 <.0 v.v.n > w.v.u 3 1 i v.T 4 4 < v.v.e e C , } v.3 l 4 1 v.v.f 2 1 8 v.T 3 C ",
"v.&.8 v.v.f f v.v.2 } v.a.2 a.v.i n v.J J J & & 9 <.9 v.i   < v.v.4.. + v.j.v.2   2 v.a.v.:   8 v.j.v.@   9.v.v.&.  @ v.j.v.1   ",
"a.O 2 v.[   l v.3   9.v.* + v.^   C v.J J J & & 9 <.0 v.o   [ v.v.,   1 v.j.v.O   _ v.v.9.X X y.v.v.v   % v.a.v.-   8 v.j.j.O   ",
"u   C v.<   4.v.@ @ v.y.  , v.> . w.v.J J J & & 9 <.0 v.8 , v v.a.> 2 2 } v.C > 4 3 a.v.} * 1 f v.v.2 , 2 [ v.v.< * 4 v.v.w.* , ",
"2 , v.v.1 8 v.a., } v.} , j.v.1 n v.v.J J J & & 9 <.0 v.v.v.2 , < &.v.a.: , 3 v.v.^ * i 2 y.v.4 , 1 n v.v., 2 4 i v.^ : u 1 <.v.",
"i j.v.j.l a.v.9.i v.v.[ C v.j.u a.v.v.J J J & & 9 <.0 v.a.v._   + 4.j.v.>   < v.j.a.O   i v.v.<.  X [ v.v.8   @ j.j.v.%   , v.j.",
"2 # j.v.2 + v.v.+ , v.9.. u v.: # v.v.J J J & & 9 <.0 v.j.v.v.:   e v.v.o.X . y.v.v.1   - v.v.v.1   3 v.v.v.$   ^ v.v.4.X + v.v.",
"v   f v.n   f v.-   j.v.O # v.e   _ v.J J J & & 9 <.0 v.v.v.u 8 ^ 1 4.&.1 [ n 2 y.u 8 &.2 n y.C 4 3 < v.j.f 4 n 1 4.v.C 2 < _ v.",
"v.% 4 v.v.= 4 v.&.% 4.v.v = v.v.= n v.J J J & & 9 <.9 v.&.O : v.v.4.+ + 4.v.v.v   > v.v.v.1 . $ v.v.T $ O 4 v.v.[ O @ e v.v.2 $ ",
"v.o.u v.v.^ u v.v.3 &.v.a.2 j.v.v v v.J J J & & 9 <.0 v.#   i v.v.3   - v.j.v.%   i v.a.v.*   u v.v._   + v.j.v.<   , v.a.v.3   ",
"a.+ 4 v.4.X 4 v.2 . y.v.% # v._   C v.J J J & & 9 <.0 v.* @ w.v.v.<   _ v.v.v.@ @ w.v.j.v.* + 9.v.v.u X , v.v.v., X 3 v.v.v.< X ",
"e   J v.3   [ v.+ # v.9.  < v.,   9.v.J J J & & 9 <.0 v.v.4.1 4.^ 3 4.1 [ v.3 J w.< &.v.4 i 9.< 4.o.1 a.} < y.&.1 a.[ < j.l 4 _ ",
"1 > v.v.2 1 v.y.> } v._ > a.v.< r v.v.T J J & & 9 <.0 v.a.v.f . = v.v.j.* o 3 v.v.&.O $ 8 v.v.4 . : j.v.v.^ o # 9.v.v.* o 2 v.v.",
"u a.v.v.f j.v.<.f v.v.^ [ v.a.u j.v.v.T J J & & 9 <.0 v.j.v.<.o   T v.v.l   + y.j.v.%   1 v.v._ X   &.v.a.v.#   2 v.v.2   % v.j.",
"2 # j.v.1 # v.v.+ < v.o.X T v.: # v.v.T C J & & 9 <.0 v.v.v.v., + 4 v.v.e , @ } v.<.2 * * v.v.v.> $ < y.v.v 3 * - v.v.u # $ v.v.",
"v   f v.f   n v.* . v.j.. * v.4   [ v.J C J & & 9 <.0 v.v.v < } v.4 4 < C v.9.2 4 , a.v.T 2 l < o.v.o.1 2 3 v.v.J 2 1 i v.4 u 9.",
"v.% 4 v.j.% 8 v.} % 9.v.4 - v.j.* n v.J J J & & 9 <.9 v.,   l v.v.w.. + v.a.v.e   2 v.a.v.%   } v.j.v.# . v.v.v.o.. % v.j.v.e X ",
"v.&.i v.v.T u v.v.3 &.v.y.2 v.v.i n v.J J J & & 9 <.k o.  O v.j.v.,   2 v.j.v.O   } v.v.v   $ v.a.v.4   > v.a.v.*   2 v.y.v.>   ",
"a.@ 3 v.4.X 8 v.2 X a.v.$ % v.^   J v.J J J & & 9 <.r j.2 2 u v.9.> : 8 v.v.&.* > _ v.v.u * 3 l v.v.< , 2 w.v.v.= 3 4 n v._ > % ",
"8   J v.3   } v.O # v.<.  1 v.>   w.v.J J J & & 9 <.9 v.v.v.3 > 1 9.v.i < i 1 a.v.1 3 f 3 v.v.2 2 1 [ v.<., i 2 _ v.v.> , 3 v.j.",
"1 : v.v.1 1 v.y.: o.v.T > j.v.< i v.v.T J J & & 4 <.0 v.a.v.J   $ y.j.v.=   1 v.v.T   O 9.v.v.&.  O <.j.v.4   % v.j.v.*   3 v.v.",
"8 j.v.j.u j.v.<.u v.v.J T v.a.8 v.v.v.T J J & & 4 <.0 v.j.v.v.*   8 v.v.f . X v.v.v.*   8 v.j.v.:   3 v.v.v.@   J v.v._   O v.v.",
"< $ v.v.< # v.v.O 1 v.[ . T v.= $ v.v.T C T & & 4 <.0 v.v.v.n 4 v < <.n 3 <.3 4 v.J 4 f < <.v.8 u e 1 v.v.4 u f < w.a.3 f 1 f v.",
"u   C v.8   T v.% X v.a.. : v.3   o.v.J C T & & 4 4.9 v.J O 1 v.v.a.# @ v.v.v.C * O w.v.y.= + 4 v.v.^ % @ f v.v.9.$ @ _ v.v.4 = ",
"v.$ 8 v.j.% i v.[ % w.v.4 > v.a.* T v.J C T & & 4 <.r y.X   4.v.v.8   * v.j.v.}   O y.v.} . . v.v.v.T   @ v.j.v.8   * v.y.v.f   ",
"v.o.l v.v.l f v.v.4 <.v.a.3 v.v.n C v.T C T & & 4 <.p &.O % 4.v.v.>   8 v.j.v.1   4 v.v.l . > f v.v.1 . < v.v.v.2   4 v.v.v.-   ",
"y.+ e v.}   f v.3 X y.v.% $ v._   J v.J C T & & 4 4.9 v.j.w.< o.f 4 j.4 f v.4 u 9.2 &.j.1 [ v.8 4 n 3 v._ 1 v.w.1 } e 8 v.2 n ^ ",
"3   ^ v.<   <.v.+ @ v.4.  1 v.>   9.v.T C T & & 4 4.0 v.j.v.C   > v.v.v.% + 4 v.v.&.O $ } v.v.v.O @ v.v.v.% @ 1 &.v.v.- o 8 v.v.",
", > v.v.1 e v.y.- [ v.T ; a.v., 8 v.v.T C T & & 4 4.0 v.j.v.} o   T v.v.4   # v.j.v.%   2 v.j.v.%   < v.v.1   % v.y.v.e   @ a.v.",
"8 v.v.j.8 j.v.<.f v.v.J _ v.a.8 v.v.v.T C T & & 4 4.9 v.j.v.v.1 X 4 v.v.T % @ 4.v.v.3 # - v.v.v.3 + , v.v.o.# $ y.v.v.C * @ a.v.",
", * v.v.> # v.v.O 2 v._ X ^ v.= % v.v.T C T & & 4 4.0 v.v.9.1 l v.3 f 4 3 v.4.1 _ , ^ v._ 1 _ , _ v.3 f f 1 v.&.1 [ 2 4 v.T 3 [ ",
"4   ^ v.e   _ v.$ o v.a.  : v.2   o.v.T C T & & 4 4.9 v.&.X # v.v.&.  # v.j.v.<.X O v.j.v.v   - v.j.v.*   ^ v.v.C   $ v.a.v.3   ",
"a.# f v.j.= n v._ % y.v.3 > v.y.% T v.T C T & & 4 4.9 v.%   e v.v.-   8 v.y.v.3   , v.a.v.%   f v.v.}   @ a.j.v.=   i v.j.v.@   ",
"v.o.n v.v.i f v.v.2 <.v.w.1 v.v.u n v.T C T & & 4 4.9 v.i * n v.w.- > e v.v.v.< % 4 v.v.<.- = J v.a.1 > , 9.v.v.- - i v.v.9.% * ",
"y.@ e v._   l v.2 X a.v.$ % v.T   J v.T C T & & 4 4.9 v.v.v.2 2 2 <.v.l < o.1 ^ v.u 2 T 1 w.v.1 4 2 [ v.w., v 2 [ v.8 2 ^ 1 9.j.",
"4   ^ v.<   9.v.O # v.<.  2 v.>   w.v.T C T & & 4 4.9 v.a.v.^   % a.j.v.#   3 v.a.v.=   2 v.v.}   # y.j.v.3   : v.a.v.*   2 v.v.",
", : v.v.1 i v.w.: o.v.T > v.v.< f v.v.T C T & & 4 4.9 v.j.v.v.%   u v.v.i   @ v.j.v.n   o a.v.v.=   2 v.v.9.o   } v.v.o.  X a.v.",
"i j.v.j.e y.v.<.u v.v.J T v.a.e j.v.v.T C T & & 4 4.9 v.v.v.^ 4 , 4 v.} 2 f ; &.v.[ 2 n = <.v.J 3 e , 4.j.2 v 2 1 v.v.u 3 : } v.",
"8 $ j.v.> @ v.v.O 1 v.[ . T v.= $ v.v.T C T & & 4 4.9 v.v.> $ v.v.8 % % w.v.j.: # < a.v.y.< # , v.v.a.% @ ^ v.v._ , < u v.v.< = ",
"T   4 v.8   ^ v.% X v.a.. - v.3   o.v.T C T & & 4 4.4 v.1   : v.v.3   : v.v.&.o . y.v.j.j.#   _ v.v.n   # v.a.v.J   * v.j.a.#   ",
"v.% < v.v.: n v.} * w.v.4 > v.a.= T v.T C T & & 4 4.9 v.: . <.v.v.*   o.v.v._   # 9.v.v.9.. # <.v.v.2   < v.v.v.%   e v.v.i   # ",
"v.9.e v.v.l l v.v.3 <.v.y.2 v.v.f C v.T C T & & 4 4.9 v.v.f 4 v.^ 2 T 2 w.v.n 1 9.1 [ v.2 n y.1 &.y.< o.[ < v.v.: u 4 C v.4 , n ",
"v.% < v.[   f v.2 . a.v.$ % v.^   J v.T C T & & 4 4.9 v.j.v.3 O : v.v.} # = 3 v.v.T o > T v.v.3 X , 4.v.v.2 + , } v.v.# % 4 v.v.",
"T   e v.<   9.v.O # v.<.  2 v.>   w.v.T C T & & 4 4.9 v.j.v.o.. . T v.v.:   > v.v.4.X   _ v.v.e   O v.j.v.n   X 9.v.v.:   > v.a.",
"4 $ j.v.1 u v.w.: o.v.T > j.v.< f v.v.^ C T & & 4 4.9 v.j.v.v., X f v.v.n @ # 4.v.[ , + 1 v.v.w.% + i v.v.v.= X } v.v.<.O $ v.v.",
"i y.v.j.i a.v.<.i v.v.J T v.a.8 v.v.v.^ C ^ & & 4 4.9 v.v.&.> [ w.2 n 3 3 v.y.2 1 2 v.v.8 4 n < w.v.8 3 v < <.&.2 T i 1 9.i 4 C ",
"8 % j.v., @ v.v.O 1 v.[ . T v.= $ v.v.^ C ^ & & 4 4.4 v.[ . $ v.v.u   - v.v.v.:   o.v.j.v.:   u v.v.a.o . 4.v.v.f   @ j.v.v.@   ",
"T   e v.u   J v.% X v.a.  : v.3   o.v.T C ^ & & 4 4.4 v.%   8 v.j.@   _ v.v.J   @ v.v.v.9.  X y.v.v.2   > v.a.v.=   f v.v.u   $ ",
"v.$ < v.v.= i v.[ % w.v.4 > v.a.* T v.T C ^ & & 4 4.9 v.n , e v.v.= , e j.v.T % 3 i v.v.f : < J v.v.1 , 3 C v.v., = 4 a.v._ # 1 ",
"v.<.e v.v.T C v.v.4 4.v.w.2 v.v.i J v.T C ^ & & 4 4.9 v.v.v.i , , T v.C : 1 1 j.v.4 1 1 2 v.v.4 : - l v.v.2 > < i v.T > e 1 w.v."
};
