/* XPM */
static char *_5194b8f6aca4b2fad8f60ae7ea650707OG2gRl5Cgsa2xdK[] = {
/* columns rows colors chars-per-pixel */
"64 64 236 2 ",
"   c #180606",
".  c #150B0A",
"X  c #1C0E0D",
"o  c #170A06",
"O  c #1C110D",
"+  c #16110A",
"@  c #1A0D13",
"#  c #1E1111",
"$  c #0D0D0B",
"%  c #210D0D",
"&  c #2C0B09",
"*  c #23110E",
"=  c #2C130C",
"-  c #32130D",
";  c #3B160A",
":  c #221311",
">  c #2B1716",
",  c #3B1415",
"<  c #3C1B15",
"1  c #3B1D1A",
"2  c #351816",
"3  c #340B0C",
"4  c #3E221D",
"5  c #362116",
"6  c #201F2F",
"7  c #3D2626",
"8  c #343131",
"9  c #431C1C",
"0  c #471717",
"q  c #5D1916",
"w  c #43241C",
"e  c #4A241D",
"r  c #482619",
"t  c #512318",
"y  c #483D1F",
"u  c #442422",
"i  c #4A2424",
"p  c #492A24",
"a  c #4C2C2A",
"s  c #462728",
"d  c #562928",
"f  c #483729",
"g  c #482A34",
"h  c #553735",
"j  c #633E3E",
"k  c #5B1E23",
"l  c #3D4D2D",
"z  c #376835",
"x  c #3C7B3E",
"c  c #39743A",
"v  c #574138",
"b  c #475738",
"n  c #464C2E",
"m  c #795C3C",
"M  c #41693A",
"N  c #43753E",
"B  c #437A3D",
"V  c #49753E",
"C  c #546F3A",
"Z  c #6A663C",
"A  c #353246",
"S  c #293658",
"D  c #30304E",
"F  c #1A376A",
"G  c #13387B",
"H  c #0B306B",
"J  c #253A65",
"K  c #3E7C42",
"L  c #3D7846",
"P  c #3E7D50",
"I  c #0D4279",
"U  c #594947",
"Y  c #68544C",
"T  c #6B5350",
"R  c #457643",
"E  c #4A7643",
"W  c #437A43",
"Q  c #497A44",
"!  c #437B4A",
"~  c #4B7C49",
"^  c #4B6844",
"/  c #79615F",
"(  c #7A6764",
")  c #831C1D",
"_  c #82201F",
"`  c #922629",
"'  c #AC2D2D",
"]  c #CD1C1C",
"[  c #D01C28",
"{  c #E11C26",
"}  c #CD2D2C",
"|  c #C92826",
" . c #D12D2E",
".. c #D8282C",
"X. c #CC312D",
"o. c #C7322B",
"O. c #D1312E",
"+. c #D8302A",
"@. c #CC2E32",
"#. c #C72C30",
"$. c #D32C32",
"%. c #DA2C33",
"&. c #DC2731",
"*. c #CD3233",
"=. c #CB3438",
"-. c #D33332",
";. c #D73436",
":. c #E32F30",
">. c #CE331F",
",. c #994C39",
"<. c #82593A",
"1. c #AA4334",
"2. c #D53D46",
"3. c #846B68",
"4. c #8E7877",
"5. c #837656",
"6. c #D5625F",
"7. c #D26F6D",
"8. c #DA5657",
"9. c #2A883E",
"0. c #3B8042",
"q. c #3A8245",
"w. c #418245",
"e. c #46824A",
"r. c #73996C",
"t. c #759A77",
"y. c #6FA576",
"u. c #92817C",
"i. c #8F867D",
"p. c #DA8173",
"a. c #002F8C",
"s. c #02368E",
"d. c #023B8C",
"f. c #073985",
"g. c #013593",
"h. c #003D94",
"j. c #023C9B",
"k. c #0A3E91",
"l. c #103F87",
"z. c #023AA1",
"x. c #05438B",
"c. c #144283",
"v. c #024595",
"b. c #0A4493",
"n. c #02459A",
"m. c #084699",
"M. c #02499B",
"N. c #0B4A9B",
"B. c #074A94",
"V. c #134799",
"C. c #10549B",
"Z. c #28619F",
"A. c #0144A2",
"S. c #024AA4",
"D. c #0648A5",
"F. c #1655A3",
"G. c #0346B1",
"H. c #265FA7",
"J. c #2B65A8",
"K. c #396DA9",
"L. c #356AA8",
"P. c #336AB2",
"I. c #23518F",
"U. c #4674AD",
"Y. c #557DB6",
"T. c #406DB0",
"R. c #6C7FAA",
"E. c #707791",
"W. c #5A85B9",
"Q. c #6788B9",
"!. c #708DB9",
"~. c #7FA1BD",
"^. c #7A9AC3",
"/. c #789BCA",
"(. c #998A86",
"). c #A28A85",
"_. c #A99895",
"`. c #AC9D94",
"'. c #A9A698",
"]. c #8499B9",
"[. c #B7A5A2",
"{. c #B7B2AF",
"}. c #E69898",
"|. c #C7B7B6",
" X c #D1BDBB",
".X c #F6B8B5",
"XX c #D2C3BF",
"oX c #CEC0BD",
"OX c #F4C6B7",
"+X c #8B9FC2",
"@X c #97ABCC",
"#X c #96A9C3",
"$X c #90ACCD",
"%X c #B2BAD5",
"&X c #B7C6D9",
"*X c #A9C2D6",
"=X c #BAC7E4",
"-X c #BFD0E0",
";X c #CBC5C1",
":X c #CACAC3",
">X c #DBCDC9",
",X c #D8D7D6",
"<X c #D0D1D6",
"1X c #E8DBD7",
"2X c #F7DACA",
"3X c #F4E5DE",
"4X c #FFE0DB",
"5X c #F7E8D9",
"6X c #C5CCE4",
"7X c #CAD4E6",
"8X c #D7DCE2",
"9X c #DADCE7",
"0X c #E1DCE3",
"qX c #D9E4EA",
"wX c #E9E6E6",
"eX c #F6ECE8",
"rX c #FBF4E5",
"tX c #F6F4ED",
"yX c #FCF5ED",
"uX c #FCF9EE",
"iX c #F7FBE9",
"pX c #FCEFF2",
"aX c #F6F6F3",
"sX c #FFF7F4",
"dX c #FEF6F2",
"fX c #F5FCF4",
"gX c #FFF8F2",
"hX c #FDF8F2",
"jX c #FEFAF3",
"kX c #FDF6FA",
"lX c #F7FDFC",
"zX c #FFFEF9",
"xX c #FFFDF9",
"cX c #FEFDFA",
"vX c #F7F7F9",
"bX c #ECF2EC",
/* pixels */
"X X X X X X X X X X X X X X X X X X X X X X X X X X X X X X X X X O X : X 2 s u r a w |.cXyXsXuXgXgXgXgXgXgXgXgXgXgXgXgXgXgXgXgX",
"X X X X X X X X X X X X X X X X X X X X X X X X X X X X X X X X X X X % X > u r s 7 p >XfXjXjXjXgXgXgXgXgXgXgXgXgXgXgXgXgXgXgXgX",
"X X X X X X X X X X X X X X X X X X X X X X X X X X X X X X X X X X X X . > u u i u h eXhXxXdXuXdXdXdXdXdXdXdXdXdXdXgXgXdXdXdXdX",
"X X X X X X X X X X X X X X X X X X X X X X X X X X X X X X X X X X X % X > u p e w Y jXdXdXkXgXsXsXsXsXsXsXsXsXjXjXjXjXsXsXsXsX",
"X X X X X X X X X X X X X X X X X X X X X X X X X X X X X X X X X X X X . : u u a < 3.zXyXtXsXyXyXyXyXyXyXyXyXyXyXyXyXyXyXyXyXyX",
"X X X X X X X X X X X X X X X X X X X X X X X X X X X X X X X X X X X X X * 4 u a ; ).zXjXlXcXjXzXzXzXzXzXzXzXzXzXzXzXzXzXzXzXzX",
"X X X X X X X X X X X X X X X X X X X X X X X X X X X X X X X X X . X X X : w w a 9 E.@X@X@X@X@X@X@X@X@X@X@X@X@X@X@X@X@X@X@X@X@X",
": X X X X X X X X X X X X X X X X X X X X X X X X X X X X X X X X . X X X * 4 u e 8 x.z.d.k.g.h.g.g.g.g.g.g.g.g.g.g.g.g.g.g.g.g.",
"' & . % X X X X X X X X X X X X X X X X X X X X X X X X X . X : > 5 2 g u w u s a l.M.b.S.m.b.m.M.M.M.M.M.M.M.M.M.M.M.M.M.M.M.M.",
";.' X @ O X * . X X X X X X X X X X X X X X X X X X X X X X : > > = w e w p r e S n.M.M.n.v.n.n.v.v.v.v.v.v.v.v.v.v.v.v.v.v.v.v.",
"} :.` $ X % . : X X X X X X X X X X X X X X X X O X X X X O : : X O 5 w a s < w g A v.v.v.n.n.M.n.n.n.n.n.n.n.n.n.n.n.n.n.n.n.n.",
"} } :._ . X X X X X X X X X X X X X X X X X X X X X X X X X X X X 7 e e i a e i A F S x.n.v.M.B.n.n.n.n.n.n.n.n.n.n.n.n.n.n.n.n.",
"$.} } +.q $ # % X X X X X X X X X X X X X X X X X X X X X O X * s 9 w u 9 e 8 l.M.A.x.c.D.m.B.n.n.n.n.n.n.n.v.n.n.n.n.n.n.n.v.n.",
"} $.@.} %.q $ : X X X X X X X X X X X X X X X X X . X X X X X > 9 u r r A c.M.N.N.M.M.S.B.B.V.M.M.M.M.M.M.M.M.M.M.M.M.M.M.M.M.M.",
"-.} $.$... .0 o X X X X X X X X X X X X X X X X X X X X X X X 1 i 1 6 H g.j.g.d.s.s.d.s.g.g.g.g.s.s.s.s.s.s.s.s.s.s.s.s.s.s.s.s.",
"} } $.} o.%.#., X X X X X X X X X X X X X X X X X X X X O X X 7 0 U ]./.^.].^.^.^./.^./.^.^./.].^.^.^.^.^.^.^.^.^.^.^.^.^.^.^.^.",
" . . . . . .} } 2 + # @ + o # @ X X X X X X X X O . # X . . O s , 3.zXzXjXjXxXzXzXzXzXzXzXzXzXzXxXzXzXlXjXcXzXzXzXzXzXzXzXzXzXzX",
" . . . . . .} } ' % X X . X o # X X X X X X X X o % X # . O : a 3 3.zXeXuXyXtXtXaXaXaXaXaXaXaXaXyXlXyXuXaXyXtXaXaXaXaXaXaXaXaXaX",
" . . . . . . .} +.' o # % X % o X X X X X X X X O # X X % X * i < U sXjXjXuXwXxXdXdXdXdXdXdXgXgXdXdXdXyXlXdXgXgXgXgXgXgXgXgXgXgX",
" . . . . . . . .} +.` . . + X % X X X X X X X X X X # X % X o s 4 2 4.zXjX1X1XxXdXgXgXgXgXgXgXdXsXuXkXuXzXaXdXuXgXgXgXgXgXgXgXgX",
" . . . . . . . .X.} %.) . .                               + + 5 u d , '.zX|.dXtXgXdXdXdXgXdXdXdXjXqXdXxXuXjXkXgXdXdXdXdXdXdXdXdX",
" . . . . . . . .@. .X...7.:X;X;X;X;X;X;X;X;X;X;X;X;X;X;X>X|._.3.- u p u  X|.xXgXgXgXgXgXgXgXgXgXjXY.,XfXdXuXhXdXgXgXgXgXgXgXgXgX",
" . . . . . . . .$.-. .| &..XzXxXzXzXzXzXzXzXzXzXzXzXzXjXpXXX_.h v s p e u ;XxXyXgXgXgXgXdXdXgXjXqXg.+XxXkXuXhXdXgXgXgXgXgXgXgXgX",
" . . . . . . . .O.}  .-. .| OXlXdXdXdXdXdXdXdXdXdXsXaXtX1XeXzXwXzX( ; d 2 / jXsXdXgXgXgXdXdXgXxX+Xg.J.gXsXjXuXjXgXgXgXgXgXgXgXdX",
" . . . . . . . .} -.$. .o...@.2XlXdXdXuXuXsXkXyXsXdXjXuXxXgXtXxXfX1Xa 0 e - 4.zXuXuXuXaXkXdXtXuXJ.d.x.6XkXtXuXsXrXsXsXgXxXyXuXuX",
" . . . . . . . .O.} } $.o.O...2.4XcXdXuXgXdXfXxXjXgXdXuXuXdXzXyXaXzXoXs 7 u & _.kXaXfXxXfXxXcX6Xs.Q.M.W.uXzXcXjXzXaXxXyXaXjXgXvX",
" . . . . . . . . . .@.$. .} %.[ 2.rXkXuXhXaXjXsXgXgXdXxXdXdXjXtXdXdXzX(.- h [.1XuXjXqX%X&X&X&XU.f.@XJ.N.*X&X%X=X=XlXyXdXjXuXuXsX",
" . . . . . . . . ...@.} %. .} =.| 6.jXkXdXjXdXuXuXuXdXuXdXjXdXzXsXfXeXh 9 a [.xXhXxX&Xs.k.g.s.n.M.z.j.n.d.g.x.a.R.lXdXjXuXuXuXuX",
" . . . . . . . .X.} $.} X. .| } =.] 7.zXfXyXyXgXgXgXxXdXgXjXtXaXhXzX4., i , & ).xXuXsXJ.j.F.C.n.B.F.F.x.D.F.V.n.7XjXrXkXjXxXaXxX",
" . . . . . . . . .*. .$.}  . . .$.*.{ p.uXxXdXxXgXyXaXjXaXtXzXjXrXu.4 2 1 / s 3.eXtXzX#Xg.&XL.N.wXbXyXW.h.=XF.J.vXyXuXsXsXjXuXgX",
" . . . . . . . ...-... .-. .X.} -.@. .} 2XcXaXuXdXjXjXtXzXzX3X_.j 4 < T >XzX[.[.jXiXjXqXv.Z.n.!.cXyXcX6Xd.P.f.$XzXdXdXdXzXuXuXuX",
" . . . . . . . .*.}  .X.}  .-. .$.>.| .XcXyXdXzXgXwXjXzX1Xu.h 2 4 2 a 3XzXaXsXzXsXdXvXzXY.g.j.<XzXaXrXgXP.g.F.wXuXsXjXfXaXdXdXxX",
" . . . . . . . .} =.@.| -. . .} O.| }.kXaXfXzX1X[.4.T 3.h - - 9 h u.>XdXjXdXuXuXuXsXuXgX=Xg.T.xXsXvXyXcX#Xa.Q.cXtXzXdXuXgXsXdXgX",
" . . . . . . . . .....$.} @.$. .[ }.xXyXxXdX1X|.gXdXj 3 2 s ( {.eXdXxXgXyXaXjXjXhXzXaXjX%Xs.P.jXgXyXpXjX$Xg.W.jXyXdXdXhXfXjXrXxX",
" . . . . . . . .} } X.$.X.X.-.] 7.xXaXuXuX3XeXcX,XY & h _.1XzXzXxXgXyXdXgXjXdXuXgXyXkXzXU.f.k.6XjXyXgXjXJ.d.N.wXcXaXuXjXuXuXgXgX",
" . . . . . . . .%.@.} } $...] 6.xXuXsXkXtXyXzX{.a 2 ).eXzXzXaXdXhXaXaXgXgXgXgXgXaXjXzX9XA.K.v.Q.lXkXfX&Xn.T.j.+XlXuXgXaXsXyXjXyX",
" . . . . . . . .} $.#.$.O.| 8.uXdXuXuXxXaXxXi.< 2 |.xXtXtXsXjXsXgXgXgXdXdXgXgXgXuXaXzX~.s.*XK.N.8X9XbXY.k.&XF.Z.jXrXyXkXcXkXsXgX",
" . . . . . . . .X.o.%.@.| 2.3XlXyXdXjXrXaXcXY - ( xXeXhXjXsXuXgXdXdXdXdXdXgXgXdXsXsXgXJ.z.B.N.n.B.n.D.x.n.V.D.v.6XzXyXjXtXrXjXuX",
" . . . . . . . . . ...} ;.4XfXzXzXcXjXgXxXcX4., ,XxXhXgXdXdXdXyXdXdXjXgXgXgXgXgXkXcX%Xd.n.h.d.n.v.M.v.v.v.j.m.a.R.lXuXdXuXrXjXyX",
" . . . . . . . .} =. .| 5.y.t.r.t.r.r.t.r.y.^ < :XxXyXjXaXjXjXdXgXdXhXgXgXgXdXdXdXiXwX6X7X<X,XW.d.%XJ.N.-X<X6X7X7XuXuXkXhXhXkXgX",
"} X. .@.*.$.$.*.X.} $.m x c c c c c c M z K l 0 |.zXaXsXdXgXuXgXgXgXgXgXgXgXgXgXaXjXdXzXzXzXzX<Xh.Y.n.!.xXxXuXcXgXgXgXgXgXgXgXgX",
" ... ...X.X.}  ...&.<.0.Q W Q W Q x W K ~ W M 2 `.zXjXdXgXgXuXjXgXgXgXgXgXgXgXgXjXgXdXgXtXaXzXaXL.f.n.7XzXtXuXdXgXgXgXgXgXgXgXgX",
"X. ... .X. . .} &.,.9.Q K W E W ! W W K N W M p u U 1XpXtXgXuXaXgXgXgXgXgXgXgXgXjXuXgXgXgXgXaXzX$Xg.L.sXjXaXkXdXgXgXgXgXgXgXgXgX",
"$.X.}  . ...o.&.,.x W K R R R N M M W W V w.W w T XX(  XdXuXjXjXgXgXgXgXgXgXgXgXjXdXgXuXgXjXtXjXwXh.#XcXyXzXsXuXgXgXgXgXgXgXgXgX",
"$. .X.X. .X.&.1.W W W W R W K N W M M q.x B ~ < ).xX1X[.tXuXdXsXgXgXgXgXgXgXgXgXjXgXgXdXuXgXgXjXjXW.0XcXyXxXsXuXgXgXgXgXgXgXgXgX",
"} .. .X. .&.' V K W W E K W K W K E n W e.Q ! 5 u.xXzXeX>XxXdXsXgXgXgXgXgXgXgXgXdXdXgXxXgXdXgXdXjXbXvXuXjXsXjXuXgXgXgXgXgXgXgXgX",
"$.} }  .$.=.B 0.W E K W K W W W V e.n 8 b L ! 5 (.zXtXsXtXjXtXdXgXgXgXgXgXgXgXgXjXdXdXdXgXgXgXdXaXuXkXuXsXsXaXgXgXgXgXgXgXgXgXgX",
"$.} o...*.C K Q W W E K W W W Q W w.P n t f v 2 (.zXaXsXdXhXgXjXdXdXdXdXdXdXdXdXuXdXjXdXaXjXaXjXkXjXyXyXdXuXvXdXdXdXdXdXdXdXdXgX",
" .} ..$.Z K E W W N W W ! N w.^ ^ b n y d d t ; (.zXdXjXxXjXzXjXxXxXxXxXxXxXxXxXxXxXxXxXxXxXxXxXxXxXxXxXxXxXxXxXxXxXxXxXxXxXxXxX",
"}  .$.Z K W W W W R W K ! W K l t 9 u 8 A S F F I.T.L.K.K.K.L.L.K.K.K.K.K.K.K.K.K.K.K.K.K.K.K.K.K.K.K.K.K.K.K.K.K.K.K.K.K.K.K.K.",
"} &.<.0.E K W K K W W W W W W 7 s w G M.m.M.D.D.n.h.h.h.h.n.h.n.h.h.h.h.h.h.h.h.h.h.h.h.h.h.h.h.h.h.h.h.h.h.h.h.h.h.h.h.h.h.h.h.",
"&.,.0.Q K R R E W W W Q W W W f S r A G.n.v.x.x.v.m.N.m.M.m.m.m.m.m.m.m.m.m.m.m.m.m.m.m.m.m.m.m.m.m.m.m.m.m.m.m.m.m.m.m.m.m.m.m.",
",.x W W W W K E ! W B Q W x w.f G 7 r g J b.S.A.v.M.v.n.M.v.v.v.n.n.n.n.v.v.n.n.n.n.n.n.n.n.n.n.n.n.n.n.v.v.n.n.n.n.n.n.n.n.n.n.",
"Q K W W E W K K W R W W W W 0.l x.x.F S g I B.n.v.v.v.v.v.M.n.v.v.v.v.v.v.v.v.v.v.v.v.v.v.v.v.v.v.v.v.v.v.v.v.v.v.v.v.v.v.v.v.v.",
"W W W W W W E K W R W K ! W w.l G M.S.G.S A x.m.n.n.n.n.v.n.n.v.n.n.n.n.n.n.n.n.n.n.n.n.n.n.n.n.n.n.n.n.n.n.n.n.n.n.n.n.n.n.n.n.",
"W W W W K W E K W R W K R V w.b G S.b.M.F I A.n.n.m.v.n.m.v.n.n.n.n.n.n.n.n.n.n.n.n.n.n.n.n.n.n.n.n.n.n.n.n.n.n.n.n.n.n.n.n.n.n.",
"W W W W W W W W B W ! L Q e.! b F A.B.A.l.J v.n.v.v.v.v.v.v.v.v.v.v.v.v.v.v.v.v.v.v.v.v.v.v.v.v.v.v.v.v.v.v.v.v.v.v.v.v.v.v.v.v.",
"W W W W W W W W ~ W B W B z n 8 l.n.m.n.b.c.n.m.n.n.n.n.n.n.n.n.n.n.n.n.n.n.n.n.n.n.n.n.n.n.n.n.n.n.n.n.n.n.n.n.n.n.n.n.n.n.n.n.",
"W W W W W W W W N W W Q z Y {.9X8X8X8X8X8X8X8X8X8X8X8X8X8X8X8X8X8X8X8X8X8X8X8X8X8X8X8X8X8X8X8X8X8X8X8X8X8X8X8X8X8X8X8X8X8X8X8X8X",
"W W W W W W W W x Q ~ z (.vXcXuXxXgXxXjXgXxXgXxXxXxXxXxXxXxXxXxXxXxXxXxXxXxXxXxXxXxXxXxXxXxXxXxXxXxXxXxXxXxXxXxXxXxXxXxXxXxXxXxX",
"W W W W W W W W P W z `.zXxXuXyXgXsXvXsXdXuXsXxXuXhXuXuXuXuXuXuXuXuXuXuXuXuXuXuXuXhXuXuXuXuXuXuXuXuXuXuXuXuXuXuXuXhXuXuXuXuXuXuX",
"W W W W W W W W W z '.xXtXgXdXxXuXdXuXgXuXuXdXuXgXgXgXgXgXgXgXgXgXgXgXgXgXgXgXgXgXgXgXgXgXgXgXgXgXgXgXgXgXgXgXgXgXgXgXgXgXgXgXgX",
"W W W W W W W W c '.cXpXyXxXsXuXjXsXuXgXjXhXjXgXdXdXdXdXdXdXdXdXdXdXdXdXdXdXdXdXdXdXdXdXdXdXdXdXdXdXdXdXdXdXdXdXdXdXdXdXdXdXdXdX",
"W W W W W W W W '.xXpXkXcXuXyXjXgXdXhXdXdXgXdXjXjXjXjXjXjXjXjXjXjXjXjXjXjXjXjXjXjXjXjXjXjXjXjXjXjXjXjXjXjXjXjXjXjXjXjXjXjXjXjXjX"
};
