/* XPM */
static char *_a0e634e2b6b46f9f9d93eae36dd5fb3cITWIKGoQCoLVqbH[] = {
/* columns rows colors chars-per-pixel */
"120 76 78 1 ",
"  c #47704C",
". c #2C2E2E",
"X c gray15",
"o c #232323",
"O c None",
"+ c #282928",
"@ c #161716",
"# c #424442",
"$ c #252626",
"% c #484A49",
"& c #232423",
"* c #1D1E1E",
"= c gray12",
"- c #2A2C2C",
"; c #36383A",
": c #161615",
"> c #181819",
", c #2F2F2E",
"< c #272A29",
"1 c #333636",
"2 c #1D1D1C",
"3 c #51524E",
"4 c #444745",
"5 c #151514",
"6 c #171716",
"7 c #555652",
"8 c #3D403F",
"9 c #131515",
"0 c #2A2B2B",
"q c #242324",
"w c #131210",
"e c #585955",
"r c #565751",
"t c #5B5B56",
"y c #5F6261",
"u c #90918D",
"i c #81837F",
"p c #7C7D79",
"a c #231A15",
"s c #241C16",
"d c #261D17",
"f c #201914",
"g c #212322",
"h c #1A1C1B",
"j c #181919",
"k c #10100D",
"l c #181410",
"z c #242525",
"x c #1E1F1E",
"c c #151716",
"v c #262928",
"b c #282D2C",
"n c #26201C",
"m c #141413",
"M c #2D3130",
"N c #1C1713",
"B c #393B3A",
"V c #151619",
"C c #2E2E2C",
"Z c #090A08",
"A c #3F4240",
"S c #211D1A",
"D c #2C2B26",
"F c #32332F",
"G c #474845",
"H c #363736",
"J c #3D3F3C",
"K c #575853",
"L c #070705",
"P c #4C4E4A",
"I c #52524D",
"U c #434441",
"Y c #2C251D",
"T c #8D908C",
"R c #626159",
"E c #6C6F6C",
"W c #75756E",
"Q c #423D23",
/* pixels */
"                                                                                                                        ",
"                                                                                                                        ",
"                                                                                                                        ",
"                                                                                                                        ",
"                                                                                                                        ",
"                                                                                                                        ",
"                                                                                                                        ",
"                                                                                                                        ",
"                                                                                                                        ",
"                                                                                                                        ",
"                                                                                                                        ",
"                                                                                                                        ",
"                                                                                                                        ",
"                                                                                                                        ",
"                                                                                                                        ",
"                                                                                                                        ",
"                                                                                                                        ",
"                                                                                                                        ",
"                                                                                                                        ",
"                                                                                                                        ",
"                                                                                                                        ",
"                                                                                                                        ",
"                                                                                                                        ",
"                                                                                                                        ",
"                                                                                                                        ",
"                                                                                                                        ",
"                                                                                                                        ",
"                                                                                                                        ",
"                                                                                                                        ",
"                                                                                                                        ",
"                                                                                                                        ",
"                                                                                                                        ",
"                                                                                                                        ",
"                                                                                                                        ",
"                                                                                                                        ",
"                                                                                                                        ",
"                                                                                                                        ",
"                                                                                                                        ",
"                                                                                                                        ",
"                                                                                                                        ",
"                                                                      #%%..#                                            ",
"                                                ;Xerrt,               &q<881$                                           ",
"                                               ;%-BKKK3%           ,*o6kcgv0$                                           ",
"                                               .-DhHIKI7t# ;o%;   X:@@gxCHJ74                                           ",
"                                               oqCCSCKPHKpuo>-%  .>VVVjMKREEy%                                          ",
"                                               onnCFxIRSUTy>VCX  +VVVVjbOBAAB1$                                         ",
"                                               XfnnDOJGhgJJCFMX .>VVVVhgvBAUJ<o                                         ",
"                                               XlNnnDJMNjxCHMb2 9VVVVjhzMbxjxb1;                                        ",
"                                             #.+llfnnzvxfSxgq0..>VVVVjjgDdlkZk<.                                        ",
"                                            $=q<SllSnnzMBHCm:* 25VVVVjmgFQDkLLh&                                        ",
"                                            .>hvDflsNsnzHUGMk:&=lmVVjjmzflkZLLc-,                                       ",
"                                            *@hzMSfdsssdzHUGBhCDlllmjmkgcZZLLZxzX                                       ",
"                                            *@jgMnddddsddnMUGObOnNllckZhzkZZZhzg+                                       ",
"                                            o@jgFDnSfssSddnCJCkzgkNlmcmkgCbvbvCF+                                       ",
"                                            25czODDdNaffdddnCFnjkZklkxzcmxbbghgv&                                       ",
"                                            &ccvFznYffaSsdddSvvgmZkkkmNxxjcchg@:*                                       ",
"                                            9chCFbNnYasfssdssSnSjkkVmkkhxxjhz<2,;                                       ",
"                                           $6czOBOgkasslfddsssdflkklmkmjjjhgvv+                                         ",
"                                           o@hDJGHvlnDdsssddssssxxNlmcjzvDCBUJ8o                                        ",
"                                          ;9jgMGPBFndQYsssddsssssxgfljhMUGGGPIP3.                                       ",
"                                          .>hzHIPJODnCYsssdsdsaaadSghlkSCJPPPIIK34;                                     ",
"                                          &cxvJKIAHCYYnfaddddssaassSvCYlhDJGPIIKK7e#                                    ",
"                                         ,:hgvAKIAHDYYnffadssssaasssnMBFfhCKTTTTTTTi#                                   ",
"                                         X5xxCBIPJHvnYnjSfdddssaaasssnbOFnhAWWWWEEE7%                                   ",
"                                        $wchxFHGUJHvaYnxmfsddaasasasssSgMHYgIRRRRRRI+#                                  ",
"                                        o@chgDFUUABDlnnVffsssafsssssssdngMJHPKKKKKKKI3%                                 ",
"                                       #=mhhgzMAGUAFNddmafaaaafasssssssdnvJAAAAJJJBBBH-o                                ",
"                                      40vggxzgCFAUGJSsdlaNNaaaffssssssssdxzzzzzzzzvvzzv1;                               ",
"                                     *<ggvzgbvOFAGPUzsdlafNddslfassssssssxMHHBBBBJBBHAA84                               ",
"                                    #=bbvzghxvBHAPUJCsdNasdddsNNfsssssssslzAAHBGPPPGGABH&                               ",
"                                    XOMMMMzhjjgFMUPGFdsNaNdddssNNassasssslmgMFBGABOMMbbCX                               ",
"                                   ,-vvMMMzhxzjxHKGBHnaff5Nddsshlfasaassallkjvbbvvvzghx=$                               ",
"                                  $1MbvbMMzxbGxmhFJBBDaf:2wadsnjZfasafssalNccxxxjcmkZZj+                                ",
"                                  XMMMMbbbgxxghmkcgvFDff=*:lasnxclaaafasalNhckZZZZZZLLj+                                ",
"                                 *-vbbMbbghhhhcmjmmxznaN66cmfsddxlaaaaasalNjckLLZZZLLZj+                                ",
"                                $=cjhgbMbcchhjmjcjVmhxaN@@jxvYsdlkssssasalNjjkLLZZZLLZh&                                "
};
